<?xml version="1.0" encoding="UTF-8"?>
<svg xmlns="http://www.w3.org/2000/svg" viewBox="0 0 256 256" role="img" aria-labelledby="title desc">
  <title>VLAN Simulator</title>
  <desc>Logo for VLAN Network Simulator</desc>
  <defs>
    <linearGradient id="bgGrad" x1="0" y1="0" x2="1" y2="1">
      <stop offset="0%" stop-color="#0ea5e9"/>
      <stop offset="100%" stop-color="#6366f1"/>
    </linearGradient>
    <linearGradient id="ringGrad" x1="0" y1="1" x2="1" y2="0">
      <stop offset="0%" stop-color="#22c55e"/>
      <stop offset="100%" stop-color="#10b981"/>
    </linearGradient>
    <filter id="shadow" x="-20%" y="-20%" width="140%" height="140%">
      <feDropShadow dx="0" dy="2" stdDeviation="3" flood-color="#0f172a" flood-opacity="0.35"/>
    </filter>
  </defs>

  <!-- Rounded hexagon background -->
  <g filter="url(#shadow)">
    <path d="M128 14l74.2 42.8v85.4L128 185.1 53.8 142.2V56.8L128 14z" fill="url(#bgGrad)"/>
  </g>

  <!-- Outer decorative ring -->
  <circle cx="128" cy="116" r="86" fill="none" stroke="url(#ringGrad)" stroke-width="8" opacity="0.8"/>

  <!-- Network nodes -->
  <g stroke="#e5e7eb" stroke-width="6" stroke-linecap="round" opacity="0.95">
    <line x1="88" y1="96" x2="168" y2="96"/>
    <line x1="88" y1="96" x2="128" y2="146"/>
    <line x1="168" y1="96" x2="128" y2="146"/>
  </g>
  <g>
    <circle cx="88" cy="96" r="12" fill="#1f2937" stroke="#93c5fd" stroke-width="4"/>
    <circle cx="168" cy="96" r="12" fill="#1f2937" stroke="#a78bfa" stroke-width="4"/>
    <circle cx="128" cy="146" r="12" fill="#1f2937" stroke="#34d399" stroke-width="4"/>
  </g>

  <!-- VLAN tag badge -->
  <g transform="translate(74,188)">
    <rect x="0" y="0" rx="8" ry="8" width="108" height="30" fill="#0b1220" opacity="0.85"/>
    <rect x="2" y="2" rx="6" ry="6" width="104" height="26" fill="#111827" stroke="#334155" stroke-width="1.5"/>
    <g fill="#e5e7eb">
      <path d="M12 22l-6-16h4l4 12 4-12h4l-6 16h-4z"/>
      <path d="M30 6h4l6 16h-4l-1.2-3.4h-5.6L28 22h-4l6-16zm3.3 9.8l-1.9-5.6-2 5.6h3.9z"/>
      <path d="M44 22V6h4v12h6v4h-10z"/>
      <path d="M58 22V6h3.6l6.8 9.8V6H72v16h-3.4l-7-10.2V22H58z"/>
    </g>
  </g>
</svg>
